<svg width="16" height="17" viewBox="0 0 16 17" fill="none" xmlns="http://www.w3.org/2000/svg">
<g clip-path="url(#clip0_190_1610)">
<path d="M7.66813 4.68162C5.51604 4.68162 3.78016 6.38494 3.78016 8.49666C3.78016 10.6084 5.51604 12.3117 7.66813 12.3117C9.82022 12.3117 11.5561 10.6084 11.5561 8.49666C11.5561 6.38494 9.82022 4.68162 7.66813 4.68162ZM7.66813 10.9769C6.27739 10.9769 5.14044 9.86463 5.14044 8.49666C5.14044 7.12869 6.27401 6.01639 7.66813 6.01639C9.06225 6.01639 10.1958 7.12869 10.1958 8.49666C10.1958 9.86463 9.05887 10.9769 7.66813 10.9769ZM12.622 4.52557C12.622 5.02029 12.2159 5.41541 11.7151 5.41541C11.211 5.41541 10.8083 5.01697 10.8083 4.52557C10.8083 4.03416 11.2143 3.63572 11.7151 3.63572C12.2159 3.63572 12.622 4.03416 12.622 4.52557ZM15.1971 5.42869C15.1395 4.2367 14.8621 3.18084 13.9721 2.31092C13.0856 1.441 12.0095 1.16873 10.7948 1.10897C9.54275 1.03924 5.79013 1.03924 4.53813 1.10897C3.32673 1.16541 2.25068 1.43768 1.36075 2.3076C0.47081 3.17752 0.196722 4.23338 0.135814 5.42537C0.0647546 6.65389 0.0647546 10.3361 0.135814 11.5646C0.193339 12.7566 0.47081 13.8125 1.36075 14.6824C2.25068 15.5523 3.32334 15.8246 4.53813 15.8844C5.79013 15.9541 9.54275 15.9541 10.7948 15.8844C12.0095 15.8279 13.0856 15.5556 13.9721 14.6824C14.8587 13.8125 15.1362 12.7566 15.1971 11.5646C15.2681 10.3361 15.2681 6.65721 15.1971 5.42869ZM13.5796 12.8828C13.3157 13.5336 12.8047 14.0349 12.1381 14.2972C11.1399 14.6857 8.77125 14.5961 7.66813 14.5961C6.56502 14.5961 4.19298 14.6824 3.19814 14.2972C2.53492 14.0383 2.02397 13.5369 1.75665 12.8828C1.36075 11.9033 1.45211 9.57908 1.45211 8.49666C1.45211 7.41424 1.36413 5.0867 1.75665 4.11053C2.02059 3.45975 2.53154 2.95838 3.19814 2.69608C4.19636 2.3076 6.56502 2.39725 7.66813 2.39725C8.77125 2.39725 11.1433 2.31092 12.1381 2.69608C12.8013 2.95506 13.3123 3.45643 13.5796 4.11053C13.9755 5.09002 13.8842 7.41424 13.8842 8.49666C13.8842 9.57908 13.9755 11.9066 13.5796 12.8828Z" fill="black"/>
</g>
<defs>
<clipPath id="clip0_190_1610">
<rect width="15.1594" height="17" fill="white" transform="translate(0.085083)"/>
</clipPath>
</defs>
</svg>
